<svg xmlns="http://www.w3.org/2000/svg" version="1.1" xmlns:xlink="http://www.w3.org/1999/xlink" xmlns:svgjs="http://svgjs.dev/svgjs" width="1500" height="912" viewBox="0 0 1500 912"><g transform="matrix(1,0,0,1,-0.9090909090909918,-0.05152692709924622)"><svg viewBox="0 0 396 241" data-background-color="#ffffff" preserveAspectRatio="xMidYMid meet" height="912" width="1500" xmlns="http://www.w3.org/2000/svg" xmlns:xlink="http://www.w3.org/1999/xlink"><g id="tight-bounds" transform="matrix(1,0,0,1,0.2400000000000091,0.013616216481267429)"><svg viewBox="0 0 395.52 240.97276756703747" height="240.97276756703747" width="395.52"><g><svg viewBox="0 0 486.88926132435347 296.64" height="240.97276756703747" width="395.52"><g><rect width="22.292751110399998" height="296.64" x="273.36449882790697" y="0" fill="#3d3839" opacity="1" stroke-width="0" stroke="transparent" fill-opacity="1" class="rect-yte-0" data-fill-palette-color="primary" rx="1%" id="yte-0" data-palette-color="#3d3839"></rect></g><g transform="matrix(1,0,0,1,0,24.72)"><svg viewBox="0 0 215.00651162790697 247.2" height="247.2" width="215.00651162790697"><g id="textblocktransform"><svg viewBox="0 0 215.00651162790697 247.2" height="247.2" width="215.00651162790697" id="textblock"><g><svg viewBox="0 0 215.00651162790697 247.2" height="247.2" width="215.00651162790697"><g transform="matrix(1,0,0,1,0,0)"><svg width="215.00651162790697" viewBox="2.25 -31.5 28.050000000000004 32.25" height="247.2" data-palette-color="#3d3839"><path d="M29.8-30.75L29.8-20.55Q26.8-20.55 25.03-21.68 23.25-22.8 22.28-24.25 21.3-25.7 21-27.05 20.7-28.4 20.65-28.9L20.65-28.9Q19.7-29 18.8-29L18.8-29 17.2-29Q16.2-29 15.45-28.93 14.7-28.85 14.15-28.75L14.15-28.75Q13.55-28.65 13.05-28.55L13.05-28.55Q12.6-26.8 12.3-24.7L12.3-24.7Q12.05-22.9 11.83-20.5 11.6-18.1 11.6-15.4L11.6-15.4Q11.6-12.65 11.83-10.28 12.05-7.9 12.3-6.1L12.3-6.1Q12.6-4 13.05-2.2L13.05-2.2Q13.6-2.05 14.25-1.95L14.25-1.95Q14.8-1.85 15.55-1.8 16.3-1.75 17.2-1.75L17.2-1.75Q18.2-1.75 19.45-1.95 20.7-2.15 21.9-2.65L21.9-2.65 21.9-12.1 19-12.1 19-15 30.3-15 30.3-0.2 24.35-0.85Q22.6 0 20.68 0.38 18.75 0.75 17.2 0.75L17.2 0.75Q13.3 0.75 10.48-0.13 7.65-1 5.83-2.95 4-4.9 3.13-7.98 2.25-11.05 2.25-15.4L2.25-15.4Q2.25-19.75 3.13-22.8 4-25.85 5.83-27.8 7.65-29.75 10.48-30.63 13.3-31.5 17.2-31.5L17.2-31.5Q18.9-31.5 21.08-31.38 23.25-31.25 25.2-31.1L25.2-31.1Q27.5-30.9 29.8-30.75L29.8-30.75Z" opacity="1" transform="matrix(1,0,0,1,0,0)" fill="#3d3839" class="wordmark-text-0" data-fill-palette-color="primary" id="text-0"></path></svg></g></svg></g></svg></g></svg></g><g transform="matrix(1,0,0,1,354.01523713830693,135.2698726245847)"><svg viewBox="0 0 132.8740241860465 26.100254750830565" height="26.100254750830565" width="132.8740241860465"><g><svg xmlns="http://www.w3.org/2000/svg" data-name="Your Icon" viewBox="22 39 56 11" x="0" y="0" height="26.100254750830565" width="132.8740241860465" class="icon-icon-0" data-fill-palette-color="accent" id="icon-0"><path d="M39.5 45H24.5A2.5 2.5 0 0 0 24.5 50H39.5A2.5 2.5 0 0 0 39.5 45" fill="#ffc604" data-fill-palette-color="accent"></path><path d="M64.5 45H49.5A2.5 2.5 0 0 0 49.5 50H64.5A2.5 2.5 0 0 0 64.5 45" fill="#ffc604" data-fill-palette-color="accent"></path><circle cx="74.5" cy="42.5" r="3.5" fill="#ffc604" data-fill-palette-color="accent"></circle></svg></g></svg></g></svg></g><defs></defs></svg><rect width="395.52" height="240.97276756703747" fill="none" stroke="none" visibility="hidden"></rect></g></svg></g></svg>